<?xml version="1.0" encoding="iso-8859-1"?>
<!-- Generator: Adobe Illustrator 19.0.0, SVG Export Plug-In . SVG Version: 6.00 Build 0)  -->
<svg version="1.1" id="Capa_1" xmlns="http://www.w3.org/2000/svg" xmlns:xlink="http://www.w3.org/1999/xlink" x="0px" y="0px"
	 viewBox="0 0 512 512" style="enable-background:new 0 0 512 512;" xml:space="preserve">
<path style="fill:#136EF1;" d="M346.025,74.881V14.864c0-19.778,30.008-19.859,30.008,0v60.016
	C376.033,94.66,346.025,94.741,346.025,74.881z"/>
<path style="fill:#1689FC;" d="M391.037,59.877H120.963c-24.909,0-45.012,20.104-45.012,45.012v362.099
	c0,24.906,20.104,45.012,45.012,45.012h270.074c24.909,0,45.012-20.107,45.012-45.012V104.889
	C436.049,79.982,415.947,59.877,391.037,59.877z"/>
<path style="fill:#136EF1;" d="M436.049,104.889v362.099c0,24.906-20.103,45.012-45.012,45.012H256V59.877h135.037
	C415.947,59.877,436.049,79.982,436.049,104.889z"/>
<g>
	<path style="fill:#CAE8F9;" d="M180.98,451.984h-30.008c-19.778,0-19.859-30.008,0-30.008h30.008
		C200.758,421.976,200.839,451.984,180.98,451.984z"/>
	<path style="fill:#CAE8F9;" d="M271.004,451.984h-30.008c-19.802,0-19.802-30.008,0-30.008h30.008
		C290.808,421.976,290.808,451.984,271.004,451.984z"/>
</g>
<path style="fill:#B7E0F6;" d="M361.029,451.984h-30.008c-19.778,0-19.859-30.008,0-30.008h30.008
	C380.807,421.976,380.888,451.984,361.029,451.984z"/>
<g>
	<path style="fill:#CAE8F9;" d="M180.98,391.967h-30.008c-19.778,0-19.859-30.008,0-30.008h30.008
		C200.758,361.959,200.839,391.967,180.98,391.967z"/>
	<path style="fill:#CAE8F9;" d="M271.004,391.967h-30.008c-19.802,0-19.802-30.008,0-30.008h30.008
		C290.808,361.959,290.808,391.967,271.004,391.967z"/>
</g>
<path style="fill:#B7E0F6;" d="M361.029,391.967h-30.008c-19.778,0-19.859-30.008,0-30.008h30.008
	C380.807,361.959,380.888,391.967,361.029,391.967z"/>
<g>
	<path style="fill:#CAE8F9;" d="M180.98,331.951h-30.008c-19.778,0-19.859-30.008,0-30.008h30.008
		C200.758,301.943,200.839,331.951,180.98,331.951z"/>
	<path style="fill:#CAE8F9;" d="M271.004,331.951h-30.008c-19.802,0-19.802-30.008,0-30.008h30.008
		C290.808,301.943,290.808,331.951,271.004,331.951z"/>
</g>
<path style="fill:#B7E0F6;" d="M361.029,331.951h-30.008c-19.778,0-19.859-30.008,0-30.008h30.008
	C380.807,301.943,380.888,331.951,361.029,331.951z"/>
<path style="fill:#FEDB41;" d="M361.029,119.893H150.971c-8.403,0-15.004,6.601-15.004,15.004V256.93
	c0,8.401,6.601,15.004,15.004,15.004h210.057c8.403,0,15.004-6.603,15.004-15.004V134.897
	C376.033,126.494,369.432,119.893,361.029,119.893z"/>
<g>
	<path style="fill:#B7E0F6;" d="M271.004,451.984H256v-30.008h15.004C290.808,421.976,290.808,451.984,271.004,451.984z"/>
	<path style="fill:#B7E0F6;" d="M271.004,391.967H256v-30.008h15.004C290.808,361.959,290.808,391.967,271.004,391.967z"/>
	<path style="fill:#B7E0F6;" d="M271.004,331.951H256v-30.008h15.004C290.808,301.943,290.808,331.951,271.004,331.951z"/>
</g>
<path style="fill:#FFCC33;" d="M376.033,134.897V256.93c0,8.401-6.601,15.004-15.004,15.004H256V119.893h105.029
	C369.432,119.893,376.033,126.494,376.033,134.897z"/>
<g>
</g>
<g>
</g>
<g>
</g>
<g>
</g>
<g>
</g>
<g>
</g>
<g>
</g>
<g>
</g>
<g>
</g>
<g>
</g>
<g>
</g>
<g>
</g>
<g>
</g>
<g>
</g>
<g>
</g>
</svg>
