<?xml version="1.0" standalone="no"?>
<!DOCTYPE svg PUBLIC "-//W3C//DTD SVG 20010904//EN"
 "http://www.w3.org/TR/2001/REC-SVG-20010904/DTD/svg10.dtd">
<svg version="1.0" xmlns="http://www.w3.org/2000/svg"
 width="599.000000pt" height="599.000000pt" viewBox="0 0 599.000000 599.000000"
 preserveAspectRatio="xMidYMid meet">
<metadata>
Created by potrace 1.11, written by Peter Selinger 2001-2013
</metadata>
<g transform="translate(0.000000,599.000000) scale(0.100000,-0.100000)"
fill="#000000" stroke="none">
<path d="M65 5082 c-3 -8 -5 -29 -5 -48 0 -33 2 -34 38 -35 126 -3 229 -62
268 -154 43 -103 43 -122 41 -1530 -2 -737 -6 -1351 -10 -1365 -4 -14 -10 -38
-13 -55 -9 -42 -48 -99 -86 -128 -44 -34 -87 -45 -180 -46 l-58 -1 0 -37 c0
-21 4 -43 8 -48 4 -7 156 -10 429 -10 l423 0 0 46 0 46 -82 5 c-162 9 -224 66
-256 238 -7 36 -10 501 -11 1315 l0 1260 60 -180 c33 -99 105 -319 160 -490
56 -170 120 -368 144 -440 57 -174 151 -463 275 -845 56 -173 106 -324 111
-335 5 -11 11 -29 12 -40 2 -11 7 -29 11 -40 5 -11 12 -31 16 -45 4 -14 11
-34 16 -45 4 -11 8 -25 9 -31 7 -31 130 -400 136 -407 3 -5 18 -10 32 -11 30
-4 26 -11 92 194 25 80 48 152 52 160 3 8 7 20 8 25 3 11 182 564 240 740 50
150 262 804 302 930 19 61 41 126 48 145 8 19 47 141 89 270 41 129 91 282
110 340 l35 105 0 -1266 c0 -697 -3 -1270 -6 -1273 -4 -3 -7 -21 -8 -38 -5
-93 -72 -195 -142 -219 -34 -11 -91 -18 -161 -19 -30 0 -32 -2 -31 -32 3 -69
-42 -63 516 -62 280 1 514 2 521 3 7 1 12 17 12 46 l0 45 -57 1 c-85 2 -108 6
-150 26 -75 35 -112 95 -129 208 -4 20 -16 250 -15 273 0 13 0 20 1 222 0 74
1 140 1 145 0 6 0 39 -1 75 0 36 0 92 0 125 0 33 -1 94 -1 135 -1 41 0 80 1
85 1 6 1 15 0 20 -4 21 -1 106 5 115 3 6 3 10 -2 10 -4 0 -7 19 -6 42 2 24 3
63 2 88 0 25 1 74 1 110 1 36 1 72 1 80 -2 52 -3 167 -1 175 1 6 1 15 0 20 -4
21 -1 106 5 115 3 6 3 10 -2 10 -4 0 -7 19 -6 42 2 24 3 63 3 88 -1 43 0 244
1 265 0 6 0 39 0 75 -1 36 0 72 0 80 0 8 0 56 -1 105 -4 270 16 393 75 462 47
55 95 76 190 82 l80 6 0 45 0 45 -347 0 -348 0 -61 -190 c-33 -104 -69 -215
-79 -245 -11 -30 -71 -217 -135 -415 -64 -198 -124 -382 -133 -410 -9 -27 -17
-52 -17 -55 -1 -5 -109 -338 -185 -570 -17 -52 -33 -102 -35 -110 -2 -8 -9
-28 -15 -45 -6 -16 -13 -37 -15 -45 -3 -15 -138 -431 -180 -555 -13 -38 -26
-63 -29 -55 -3 8 -58 175 -122 370 -64 195 -149 454 -189 575 -40 121 -107
326 -149 455 -43 129 -81 244 -86 255 -6 15 -89 270 -95 295 -1 3 -4 12 -8 20
-3 8 -29 87 -57 175 -28 88 -54 167 -56 175 -3 8 -5 17 -6 20 0 3 -4 12 -9 21
-4 9 -10 27 -13 40 -3 13 -26 85 -51 159 l-46 135 -344 0 c-281 0 -346 -2
-350 -13z"/>
<path d="M3256 5090 c-1 -3 -2 -23 -1 -45 l0 -40 63 -7 c83 -9 178 -54 243
-115 28 -26 80 -91 115 -144 l65 -97 -4 -1328 c-2 -731 -6 -1342 -10 -1359 -4
-16 -8 -39 -10 -50 -5 -31 -43 -98 -69 -121 -50 -47 -99 -62 -201 -63 l-58 -1
3 -47 3 -47 410 -1 c226 0 418 1 428 3 13 3 17 15 17 48 l0 44 -60 1 c-33 1
-63 2 -67 3 -5 1 -24 5 -44 9 -44 9 -94 45 -124 90 -23 33 -27 48 -45 157 -11
70 -13 2360 -2 2360 4 0 18 -19 30 -42 12 -24 31 -56 41 -73 10 -16 28 -48 41
-70 12 -22 61 -105 108 -185 46 -80 94 -161 105 -180 20 -37 93 -160 114 -195
7 -11 15 -26 19 -34 4 -8 58 -102 121 -208 62 -107 113 -198 113 -203 0 -4 3
-10 8 -12 4 -1 14 -16 23 -33 9 -16 105 -183 214 -370 109 -187 209 -360 223
-385 13 -25 31 -52 38 -61 8 -8 14 -18 14 -21 0 -3 48 -88 107 -189 58 -101
117 -204 131 -229 14 -25 40 -68 59 -97 18 -29 33 -54 33 -57 0 -2 16 -32 36
-65 33 -55 39 -61 70 -61 l33 0 1 1543 c0 848 3 1562 5 1587 11 123 34 190 83
235 54 52 88 63 193 64 l66 1 -1 48 0 47 -428 0 -428 0 0 -47 0 -48 68 0 c161
0 238 -69 268 -240 11 -62 14 -2251 3 -2244 -6 3 -15 16 -20 27 -5 12 -20 40
-34 62 -14 22 -35 58 -47 80 -12 22 -27 48 -33 57 -5 10 -46 80 -89 155 -43
76 -85 145 -92 153 -7 8 -12 17 -11 20 0 3 -6 16 -15 30 -13 21 -76 130 -149
257 -10 17 -29 50 -43 72 -15 22 -26 43 -26 45 0 3 -14 29 -31 58 -18 29 -39
67 -49 83 -73 128 -256 445 -269 465 -8 14 -26 45 -39 70 -14 25 -31 52 -38
61 -8 8 -14 19 -14 22 0 4 -27 52 -60 108 -33 55 -60 102 -60 104 0 1 -24 42
-53 91 -29 49 -56 96 -60 104 -4 8 -64 114 -135 235 l-128 220 -333 0 c-183 0
-334 -2 -335 -5z"/>
</g>
</svg>
